HIERARCHY
ROOT root
{
	OFFSET	0	13.1	24.9
	CHANNELS 6  Xposition Yposition Zposition Xrotation Yrotation Zrotation
	JOINT spine_1
	{
		OFFSET	0	9.99999	0
		CHANNELS 3  Xrotation Yrotation Zrotation
		JOINT spine_2
		{
			OFFSET	0	112	-10
			CHANNELS 3  Xrotation Yrotation Zrotation
			JOINT spine_3
			{
				OFFSET	0	206.5	19.3
				CHANNELS 3  Xrotation Yrotation Zrotation
				JOINT spine_4
				{
					OFFSET	0	110.4	14.6
					CHANNELS 3  Xrotation Yrotation Zrotation
					JOINT neck_1
					{
						OFFSET	0	71.8	-50.3
						CHANNELS 3  Xrotation Yrotation Zrotation
						JOINT neck_2
						{
							OFFSET	0	86.2	-25.8
							CHANNELS 3  Xrotation Yrotation Zrotation
							JOINT head_ee
							{
								OFFSET	0	179.8	-8.7
								CHANNELS 3  Xrotation Yrotation Zrotation
								End Site
								{
									OFFSET	1	0	0
								}
							}
						}
					}
					JOINT left_clavicle
					{
						OFFSET	-43.2	22.4	-70.8
						CHANNELS 3  Xrotation Yrotation Zrotation
						JOINT left_shoulder
						{
							OFFSET	-93.9	-5.79999	48.7
							CHANNELS 3  Xrotation Yrotation Zrotation
							JOINT left_elbow
							{
								OFFSET	-291.4	-30.8	15.2
								CHANNELS 3  Xrotation Yrotation Zrotation
								JOINT left_lowarm_twist
								{
									OFFSET	-110.7	-3.89999	13.6
									CHANNELS 3  Xrotation Yrotation Zrotation
									JOINT left_hand
									{
										OFFSET	-110.7	-3.89999	13.6
										CHANNELS 3  Xrotation Yrotation Zrotation
										JOINT left_ee
										{
											OFFSET	-80.8	-5.10001	12.1
											CHANNELS 3  Xrotation Yrotation Zrotation
											End Site
											{
												OFFSET	1	0	0
											}
										}
									}
								}
							}
						}
					}
					JOINT right_clavicle
					{
						OFFSET	43.2	22.4	-70.8
						CHANNELS 3  Xrotation Yrotation Zrotation
						JOINT right_shoulder
						{
							OFFSET	93.9	-5.79999	48.7
							CHANNELS 3  Xrotation Yrotation Zrotation
							JOINT right_elbow
							{
								OFFSET	291.4	-30.8	15.2
								CHANNELS 3  Xrotation Yrotation Zrotation
								JOINT right_lowarm_twist
								{
									OFFSET	110.7	-3.89999	13.6
									CHANNELS 3  Xrotation Yrotation Zrotation
									JOINT right_hand
									{
										OFFSET	110.7	-3.89999	13.6
										CHANNELS 3  Xrotation Yrotation Zrotation
										JOINT right_ee
										{
											OFFSET	80.8	-5.10001	12.1
											CHANNELS 3  Xrotation Yrotation Zrotation
											End Site
											{
												OFFSET	1	0	0
											}
										}
									}
								}
							}
						}
					}
				}
			}
		}
	}
	JOINT left_hip
	{
		OFFSET	-82.8	-127.5	0.300001
		CHANNELS 3  Xrotation Yrotation Zrotation
		JOINT left_knee
		{
			OFFSET	-28.2	-396.7	2.2
			CHANNELS 3  Xrotation Yrotation Zrotation
			JOINT left_ankle
			{
				OFFSET	-11.7	-411.3	35.4
				CHANNELS 3  Xrotation Yrotation Zrotation
				JOINT left_toes
				{
					OFFSET	0	-60	-88.6
					CHANNELS 3  Xrotation Yrotation Zrotation
					JOINT left_foot_ee
					{
						OFFSET	-22.5	-16.5	-42.2
						CHANNELS 3  Xrotation Yrotation Zrotation
						End Site
						{
							OFFSET	1	0	0
						}
					}
				}
			}
		}
	}
	JOINT right_hip
	{
		OFFSET	82.8	-127.5	0.300001
		CHANNELS 3  Xrotation Yrotation Zrotation
		JOINT right_knee
		{
			OFFSET	28.2	-396.7	2.2
			CHANNELS 3  Xrotation Yrotation Zrotation
			JOINT right_ankle
			{
				OFFSET	11.7	-411.3	35.4
				CHANNELS 3  Xrotation Yrotation Zrotation
				JOINT right_toes
				{
					OFFSET	0	-60	-88.6
					CHANNELS 3  Xrotation Yrotation Zrotation
					JOINT right_foot_ee
					{
						OFFSET	22.5	-16.5	-42.2
						CHANNELS 3  Xrotation Yrotation Zrotation
						End Site
						{
							OFFSET	1	0	0
						}
					}
				}
			}
		}
	}
}
MOTION
Frames: 16
Frame Time: 0.02
3177.02 653.055 -1669.29 -22.0862184842 14.6999009713 7.0203652966 7.271 0.353576 0.335919 7.271 0.331484 0.357737 7.27304 0.299994 0.384527 7.27301 0.356957 0.332323 -14.8386 3.4281 2.97174 -14.8323 4.78047 3.93223 -0.0 0.0 -0.0 4.94655 21.3381 9.60694 -36.4006 -10.4267 60.6371 0.201344 -5.69598 0.0100164 29.9982 0.0664096 -3.78803 -0.280299 26.1667 8.7625 -0.0 0.0 -0.0 12.8135 22.1501 -25.6408 90.6514 -62.5064 -12.2906 0.181281 5.1316 -0.00812355 85.1796 4.44804 8.87438 -8.05482 -18.4602 46.9702 0.0 0.0 0.0 48.6518 -5.44036 -4.54753 1.03458 -0.0439832 -0.152666 14.8045 0.0686653 -2.08468 6.25779 -0.0 -0.0 -0.0 0.0 -0.0 13.9599 1.57597 3.30253 -18.897 -0.307133 -2.87051 40.2812 3.2506 4.9318 13.0094 -0.0 -0.0 0.0 0.0 0.0 
3139.29128306 653.299 -1716.94619707 -20.6934632545 13.5792207196 7.41270165951 7.32224 0.248179 -0.0931292 7.32221 0.253602 -0.0771481 7.32192 0.259179 -0.0556072 7.322 0.247144 -0.095842 -13.6792 2.03813 4.21103 -13.6303 1.28811 4.63279 -0.0 0.0 -0.0 5.69576 23.6851 10.5783 -36.8581 -10.537 59.3836 0.238862 -6.74833 0.0140829 35.66 -0.142979 -4.48041 -0.84669 23.6072 4.53147 -0.0 0.0 -0.0 12.317 20.1292 -24.6538 90.8586 -63.7519 -8.95083 0.174156 4.93094 -0.00749866 85.3563 4.46923 8.88243 -10.6992 -31.7002 51.9836 0.0 0.0 0.0 47.9615 -5.17292 -4.79088 -8.81599 0.261359 1.32641 22.324 7.60688 -3.01482 17.1526 -0.0 -0.0 -0.0 0.0 -0.0 11.7954 8.66002 3.00033 -23.7641 -0.231991 -3.61335 40.0587 -0.84905 4.8753 8.4399 -0.0 -0.0 0.0 0.0 0.0 
3138.93070415 653.299 -1716.65849948 -20.7311876128 13.9859422346 7.5710477862 7.32224 0.248179 -0.0931292 7.32221 0.253602 -0.0771481 7.32192 0.259179 -0.0556072 7.322 0.247144 -0.095842 -13.6792 2.03813 4.21103 -13.6303 1.28811 4.63279 -0.0 0.0 -0.0 5.69576 23.6851 10.5783 -36.8581 -10.537 59.3836 0.238862 -6.74833 0.0140829 35.66 -0.142979 -4.48041 -0.84669 23.6072 4.53147 -0.0 0.0 -0.0 12.317 20.1292 -24.6538 90.8586 -63.7519 -8.95083 0.174156 4.93094 -0.00749866 85.3563 4.46923 8.88243 -10.6992 -31.7002 51.9836 0.0 0.0 0.0 47.9615 -5.17292 -4.79088 -8.81599 0.261359 1.32641 22.324 7.60688 -3.01482 17.1526 -0.0 -0.0 -0.0 0.0 -0.0 11.7954 8.66002 3.00033 -23.7641 -0.231991 -3.61335 40.0587 -0.84905 4.8753 8.4399 -0.0 -0.0 0.0 0.0 0.0 
3138.61201586 653.299 -1716.40046546 -20.7657526525 14.3474028525 7.71227670233 7.32224 0.248179 -0.0931292 7.32221 0.253602 -0.0771481 7.32192 0.259179 -0.0556072 7.322 0.247144 -0.095842 -13.6792 2.03813 4.21103 -13.6303 1.28811 4.63279 -0.0 0.0 -0.0 5.69576 23.6851 10.5783 -36.8581 -10.537 59.3836 0.238862 -6.74833 0.0140829 35.66 -0.142979 -4.48041 -0.84669 23.6072 4.53147 -0.0 0.0 -0.0 12.317 20.1292 -24.6538 90.8586 -63.7519 -8.95083 0.174156 4.93094 -0.00749866 85.3563 4.46923 8.88243 -10.6992 -31.7002 51.9836 0.0 0.0 0.0 47.9615 -5.17292 -4.79088 -8.81599 0.261359 1.32641 22.324 7.60688 -3.01482 17.1526 -0.0 -0.0 -0.0 0.0 -0.0 11.7954 8.66002 3.00033 -23.7641 -0.231991 -3.61335 40.0587 -0.84905 4.8753 8.4399 -0.0 -0.0 0.0 0.0 0.0 
3086.17458146 654.354 -1784.21978461 -19.2885106111 12.3910665608 6.18830975774 7.20488 0.186301 -0.0386589 7.20486 0.188383 -0.0267257 7.2048 0.189983 -0.0104444 7.20485 0.185949 -0.0403176 -13.9385 4.71876 5.71531 -13.8681 5.50297 6.89624 -0.0 0.0 -0.0 4.67885 19.2324 9.25542 -28.0297 -9.29797 64.012 0.273038 -7.70296 0.0183816 37.6089 -0.230771 -4.71359 -1.78557 19.8186 -2.63834 -0.0 0.0 -0.0 11.6067 17.6916 -23.1793 90.4983 -65.7805 -2.90828 0.189708 5.36878 -0.00889466 85.2804 4.46013 8.87898 -11.4333 -32.4689 58.3225 0.0 0.0 0.0 46.8976 -4.46791 -2.79845 -18.7003 0.308841 2.84038 24.5957 21.3696 -3.39393 22.7068 -0.0 -0.0 -0.0 0.0 -0.0 12.7668 26.6322 0.920392 -34.3658 0.147759 -5.19373 40.7346 -9.54159 4.93704 13.7639 -0.0 -0.0 0.0 0.0 0.0 
3069.55776119 662.317 -1806.10064212 -18.7124811295 12.0501609803 5.820349234 7.05236 0.00340748 -0.12175 7.05237 0.0111478 -0.121286 7.05234 0.0218443 -0.119822 7.05232 0.00264642 -0.121768 -13.7101 5.97469 6.78495 -13.6165 7.21235 8.28436 -0.0 0.0 -0.0 4.87957 18.3392 9.57809 -23.4375 -10.5247 64.5658 0.389347 -10.9169 0.037205 39.2739 -0.312038 -4.91039 -2.50394 17.9596 -7.89088 -0.0 0.0 -0.0 11.3835 14.2283 -22.8217 91.3662 -66.0218 -0.481241 0.1786 5.0561 -0.00788542 85.4429 4.47963 8.88635 -10.8022 -31.2724 53.9371 0.0 0.0 0.0 45.3521 -4.33867 -2.02846 -19.1335 0.304942 2.90674 19.9012 23.4234 -2.83177 31.2403 -0.0 -0.0 -0.0 0.0 -0.0 15.4914 28.8563 -0.536082 -39.997 0.466579 -5.99787 38.7669 -9.29133 4.76198 13.1041 -0.0 -0.0 0.0 0.0 0.0 
3069.1035369 662.317 -1805.74263487 -18.7256311608 12.230561935 5.88287684814 7.05236 0.00340748 -0.12175 7.05237 0.0111478 -0.121286 7.05234 0.0218443 -0.119822 7.05232 0.00264642 -0.121768 -13.7101 5.97469 6.78495 -13.6165 7.21235 8.28436 -0.0 0.0 -0.0 4.87957 18.3392 9.57809 -23.4375 -10.5247 64.5658 0.389347 -10.9169 0.037205 39.2739 -0.312038 -4.91039 -2.50394 17.9596 -7.89088 -0.0 0.0 -0.0 11.3835 14.2283 -22.8217 91.3662 -66.0218 -0.481241 0.1786 5.0561 -0.00788542 85.4429 4.47963 8.88635 -10.8022 -31.2724 53.9371 0.0 0.0 0.0 45.3521 -4.33867 -2.02846 -19.1335 0.304942 2.90674 19.9012 23.4234 -2.83177 31.2403 -0.0 -0.0 -0.0 0.0 -0.0 15.4914 28.8563 -0.536082 -39.997 0.466579 -5.99787 38.7669 -9.29133 4.76198 13.1041 -0.0 -0.0 0.0 0.0 0.0 
3068.95091003 662.317 -1805.62178779 -18.7301048959 12.2912829283 5.90394320242 7.05236 0.00340748 -0.12175 7.05237 0.0111478 -0.121286 7.05234 0.0218443 -0.119822 7.05232 0.00264642 -0.121768 -13.7101 5.97469 6.78495 -13.6165 7.21235 8.28436 -0.0 0.0 -0.0 4.87957 18.3392 9.57809 -23.4375 -10.5247 64.5658 0.389347 -10.9169 0.037205 39.2739 -0.312038 -4.91039 -2.50394 17.9596 -7.89088 -0.0 0.0 -0.0 11.3835 14.2283 -22.8217 91.3662 -66.0218 -0.481241 0.1786 5.0561 -0.00788542 85.4429 4.47963 8.88635 -10.8022 -31.2724 53.9371 0.0 0.0 0.0 45.3521 -4.33867 -2.02846 -19.1335 0.304942 2.90674 19.9012 23.4234 -2.83177 31.2403 -0.0 -0.0 -0.0 0.0 -0.0 15.4914 28.8563 -0.536082 -39.997 0.466579 -5.99787 38.7669 -9.29133 4.76198 13.1041 -0.0 -0.0 0.0 0.0 0.0 
3061.1654227 670.782 -1835.98748711 -17.9253129845 13.3539287162 5.99705049536 6.7292 0.0659809 0.175345 6.72921 0.0546895 0.179188 6.72936 0.0375732 0.183542 6.72932 0.0660887 0.175305 -13.5894 4.01104 6.90144 -13.4629 3.376 7.79009 -0.0 0.0 -0.0 3.5116 18.5555 7.48042 -19.6221 -12.8292 66.5683 0.510599 -14.1946 0.0635745 39.4654 -0.321747 -4.93286 -2.34382 17.8812 -6.9536 -0.0 0.0 -0.0 11.2313 11.9659 -22.5329 90.7149 -65.3784 3.20816 0.185583 5.25269 -0.00851273 85.3325 4.46638 8.88135 -10.3276 -31.4191 48.9697 0.0 0.0 0.0 43.1936 -5.00821 -0.720239 -19.0881 0.305375 2.89978 24.749 24.1016 -3.45954 28.3717 -0.0 -0.0 -0.0 0.0 -0.0 18.5641 22.9111 -0.417541 -45.4905 0.852486 -6.74915 37.0503 -4.31199 4.5939 11.905 -0.0 -0.0 0.0 0.0 0.0 
3049.61853981 676.964 -1865.30198932 -17.1899314355 12.648813829 5.27906273107 6.51919 -0.00550069 0.210368 6.51922 -0.0188758 0.209592 6.51912 -0.0392874 0.20674 6.51906 -0.00614369 0.21035 -12.2313 5.24159 6.38805 -12.1361 5.856 7.61006 -0.0 0.0 -0.0 3.96616 18.5118 8.17356 -20.3536 -17.0607 64.7778 0.785401 -21.2592 0.147406 40.0029 -0.349411 -4.99579 -2.33752 13.2406 -9.268 -0.0 0.0 -0.0 10.4659 10.2562 -20.8537 90.4273 -66.6011 5.61811 0.180167 5.10024 -0.00802422 85.1722 4.44716 8.87404 -9.41814 -30.5261 42.6922 0.0 0.0 0.0 40.277 -6.96967 0.271754 -18.211 0.312641 2.7654 25.3921 24.8881 -3.55436 30.6859 -0.0 -0.0 -0.0 0.0 -0.0 21.4635 22.0636 -1.64276 -51.6776 1.37139 -7.54742 35.6645 -6.73718 4.46354 11.1476 -0.0 -0.0 0.0 0.0 0.0 
3047.01768005 676.964 -1863.58675453 -17.242164788 13.3781835528 5.51101977057 6.51919 -0.00550069 0.210368 6.51922 -0.0188758 0.209592 6.51912 -0.0392874 0.20674 6.51906 -0.00614369 0.21035 -12.2313 5.24159 6.38805 -12.1361 5.856 7.61006 -0.0 0.0 -0.0 3.96616 18.5118 8.17356 -20.3536 -17.0607 64.7778 0.785401 -21.2592 0.147406 40.0029 -0.349411 -4.99579 -2.33752 13.2406 -9.268 -0.0 0.0 -0.0 10.4659 10.2562 -20.8537 90.4273 -66.6011 5.61811 0.180167 5.10024 -0.00802422 85.1722 4.44716 8.87404 -9.41814 -30.5261 42.6922 0.0 0.0 0.0 40.277 -6.96967 0.271754 -18.211 0.312641 2.7654 25.3921 24.8881 -3.55436 30.6859 -0.0 -0.0 -0.0 0.0 -0.0 21.4635 22.0636 -1.64276 -51.6776 1.37139 -7.54742 35.6645 -6.73718 4.46354 11.1476 -0.0 -0.0 0.0 0.0 0.0 
3035.51718054 673.895 -1886.18116796 -16.5458577515 14.1420608701 5.57848745505 6.38596 0.0211816 0.341221 6.38602 -0.000573966 0.341877 6.38594 -0.0348042 0.340102 6.38578 0.019345 0.34133 -12.3097 5.31016 4.60113 -12.2794 7.14126 5.92571 -0.0 0.0 -0.0 4.33232 19.3062 8.7298 -18.2529 -16.6304 64.383 0.867753 -23.2607 0.178606 38.9368 -0.29512 -4.87073 -2.45339 7.31752 -13.0103 -0.0 0.0 -0.0 9.36916 10.2155 -18.4552 89.6989 -69.2725 7.31584 0.188483 5.33433 -0.00878046 84.906 4.41528 8.86179 -7.55979 -28.7942 31.4604 0.0 0.0 0.0 39.4923 -4.06937 0.376763 -19.9298 0.296468 3.02862 28.6756 25.1445 -3.95615 28.7543 -0.0 -0.0 -0.0 0.0 -0.0 23.4875 16.9427 -0.60176 -56.4801 1.83213 -8.12636 32.037 -1.85567 4.11213 14.4142 -0.0 -0.0 0.0 0.0 0.0 
3016.43512728 676.366 -1904.95545076 -17.6882534658 16.1872436844 6.68924996254 6.74544 -0.199541 0.433578 6.74552 -0.226726 0.420002 6.74377 -0.265175 0.396849 6.74361 -0.199173 0.433747 -11.4693 3.58578 3.5301 -11.4444 4.4829 4.37815 -0.0 0.0 -0.0 5.1593 18.5114 10.0061 -18.8916 -20.1963 61.7661 0.893536 -23.8754 0.188915 40.0191 -0.350256 -4.99769 -2.16285 4.38322 -12.5043 -0.0 0.0 -0.0 9.32534 9.01756 -18.3801 91.1411 -68.5872 12.339 0.175926 4.98079 -0.00765158 85.1779 4.44783 8.8743 -5.58187 -23.9892 23.0513 0.0 0.0 0.0 37.5595 -4.85694 1.22241 -17.5226 0.316902 2.65987 33.5054 24.9373 -4.49936 25.2579 -0.0 -0.0 -0.0 0.0 -0.0 26.6171 17.2682 -1.61969 -58.3803 2.02765 -8.34459 28.1392 -1.20251 3.70066 14.3987 -0.0 -0.0 0.0 0.0 0.0 
2994.7156811 679.215 -1925.03839758 -17.2564145773 13.5593371012 6.26327637973 7.06308 0.197248 0.225383 7.06309 0.182507 0.237477 7.06382 0.160813 0.252672 7.06379 0.1987 0.224104 -12.115 2.98568 2.4626 -12.1072 4.08213 3.20784 -0.0 0.0 -0.0 6.35 16.9194 11.9442 -15.2788 -18.4482 60.5934 0.833282 -22.4299 0.165223 38.7346 -0.285086 -4.8469 -1.70501 -3.61649 -13.1157 -0.0 0.0 -0.0 8.84756 6.80262 -17.3786 84.6977 -68.6984 8.80418 0.172866 4.89459 -0.00738825 85.0272 4.42978 8.86739 -4.51335 -21.4116 18.2152 0.0 0.0 0.0 35.7742 2.22449 -0.289691 -19.0535 0.3057 2.89448 38.5141 22.0872 -4.93938 21.4346 -0.0 -0.0 -0.0 0.0 -0.0 30.4623 20.5322 -3.29005 -60.2342 2.22532 -8.5512 24.1632 -0.866554 3.25011 13.4354 -0.0 -0.0 0.0 0.0 0.0 
2982.52842934 682.321 -1936.772271 -17.5435174174 14.661616939 6.6790238367 7.29638 0.0850727 0.133849 7.29639 0.0763832 0.138991 7.29656 0.0643937 0.144935 7.29654 0.0864754 0.132947 -12.861 3.237 2.12767 -12.8628 4.81482 2.98783 -0.0 0.0 -0.0 6.67916 13.9704 12.6391 -13.3054 -17.1728 61.5775 0.941638 -25.0068 0.208819 42.9575 -0.511964 -5.33695 -1.71404 -4.07985 -13.3879 -0.0 0.0 -0.0 8.52304 8.68614 -16.6633 76.1221 -69.2748 4.11492 0.179558 5.08309 -0.00797008 85.051 4.43263 8.86848 -3.47203 -20.5652 12.348 0.0 0.0 0.0 35.0611 4.98379 -0.102484 -19.6088 0.300088 2.9795 38.6835 17.3956 -4.8519 18.6098 -0.0 -0.0 -0.0 0.0 -0.0 32.8158 19.9939 -3.5368 -62.0323 2.42339 -8.74546 21.507 -1.56441 2.92881 12.0386 -0.0 -0.0 0.0 0.0 0.0 
2975.17371072 684.742 -1959.16589349 -17.9057154881 12.6281111793 6.64225172243 7.59174 0.00397972 0.1483 7.59175 -0.00546506 0.148253 7.59172 -0.0171854 0.147355 7.59169 0.00630219 0.14822 -12.1689 2.58255 1.75686 -12.1682 3.77297 2.41841 -0.0 0.0 -0.0 6.42204 10.4399 12.3377 -12.611 -17.6576 61.3838 0.835899 -22.4933 0.166223 44.4858 -0.602913 -5.51006 -0.939395 -10.38 -10.8121 -0.0 0.0 -0.0 8.03169 6.41617 -15.6609 73.9974 -69.919 3.29899 0.18451 5.2225 -0.00841481 83.6919 4.27059 8.80403 -1.82894 -14.3414 5.51909 0.0 0.0 0.0 33.3511 6.32387 -0.635974 -18.0971 0.313433 2.74794 41.0211 18.0091 -5.0775 21.3152 -0.0 -0.0 -0.0 0.0 -0.0 36.0455 21.1834 -6.12755 -61.1618 2.32673 -8.65218 18.6225 -4.71956 2.56097 11.0518 -0.0 -0.0 0.0 0.0 0.0 
